<svg width="46" height="46" viewBox="0 0 46 46" fill="none" xmlns="http://www.w3.org/2000/svg">
<path d="M33.0417 29.1667H31.0008L30.2775 28.4692C32.8092 25.5242 34.3333 21.7008 34.3333 17.5417C34.3333 8.2675 26.8158 0.75 17.5417 0.75C8.2675 0.75 0.75 8.2675 0.75 17.5417C0.75 26.8158 8.2675 34.3333 17.5417 34.3333C21.7008 34.3333 25.5242 32.8092 28.4692 30.2775L29.1667 31.0008V33.0417L42.0833 45.9325L45.9325 42.0833L33.0417 29.1667ZM17.5417 29.1667C11.1092 29.1667 5.91667 23.9742 5.91667 17.5417C5.91667 11.1092 11.1092 5.91667 17.5417 5.91667C23.9742 5.91667 29.1667 11.1092 29.1667 17.5417C29.1667 23.9742 23.9742 29.1667 17.5417 29.1667Z" fill="#EF3651"/>
</svg>
